<svg width="49" height="43" viewBox="0 0 49 43" fill="none" xmlns="http://www.w3.org/2000/svg">
<path d="M23.5789 15.1614L22.9695 17.3469H19.46C19.7261 18.1035 19.8592 18.811 19.8592 19.4695C19.8592 21.3188 19.0747 22.965 17.5056 24.408C15.9224 25.851 13.7509 26.6496 10.9909 26.8037C9.50582 27.252 8.39202 27.7844 7.64949 28.4009C7.36929 28.625 7.22919 28.8562 7.22919 29.0944C7.22919 29.3746 7.35528 29.6338 7.60746 29.8719C7.85964 30.0961 8.4971 30.3272 9.51983 30.5654L13.5968 31.5111C15.8524 32.0435 17.3444 32.6739 18.073 33.4025C18.7875 34.145 19.1447 34.9996 19.1447 35.9663C19.1447 37.1151 18.7174 38.1659 17.8628 39.1186C17.0222 40.0712 15.7823 40.8138 14.1431 41.3462C12.518 41.8925 10.7177 42.1657 8.74227 42.1657C7.00502 42.1657 5.42189 41.9556 3.99286 41.5353C2.56384 41.129 1.54111 40.5756 0.924663 39.8751C0.308221 39.1746 0 38.4531 0 37.7105C0 37.1081 0.203146 36.4777 0.609437 35.8192C1.00172 35.1747 1.49908 34.6423 2.10151 34.222C2.47978 33.9559 3.55155 33.3254 5.31681 32.3307C4.67235 31.8263 4.35012 31.2729 4.35012 30.6705C4.35012 30.1101 4.63032 29.5147 5.19072 28.8842C5.76514 28.2538 6.97 27.5603 8.80532 26.8037C7.26421 26.5095 6.03833 25.865 5.12768 24.8703C4.23103 23.8756 3.78271 22.7688 3.78271 21.55C3.78271 19.5605 4.65134 17.7812 6.38858 16.2121C8.13984 14.643 10.4655 13.8584 13.3656 13.8584C14.4163 13.8584 15.278 13.9635 15.9504 14.1737C16.6229 14.3838 17.2744 14.713 17.9048 15.1614H23.5789ZM16.2867 18.4607C16.2867 17.3399 15.9715 16.4573 15.341 15.8128C14.7246 15.1684 13.912 14.8461 12.9033 14.8461C11.3201 14.8461 10.0102 15.6447 8.97344 17.2419C7.9507 18.825 7.43934 20.4782 7.43934 22.2014C7.43934 23.2802 7.76857 24.1628 8.42704 24.8493C9.08552 25.5358 9.88409 25.8791 10.8228 25.8791C11.5653 25.8791 12.2798 25.6759 12.9663 25.2696C13.6668 24.8633 14.2552 24.3029 14.7316 23.5884C15.2079 22.8739 15.5862 21.9632 15.8664 20.8565C16.1466 19.7497 16.2867 18.9511 16.2867 18.4607ZM6.22046 32.8771C5.08565 33.3955 4.22403 34.0609 3.63561 34.8735C3.0612 35.6861 2.77399 36.4847 2.77399 37.2692C2.77399 38.1939 3.19429 38.9574 4.03489 39.5599C5.23976 40.4285 7.00503 40.8628 9.33069 40.8628C11.3341 40.8628 13.0434 40.5196 14.4584 39.8331C15.8874 39.1606 16.6019 38.285 16.6019 37.2062C16.6019 36.6598 16.3357 36.1414 15.8033 35.6511C15.285 35.1607 14.2692 34.7614 12.7562 34.4532C11.9296 34.2851 9.75099 33.7597 6.22046 32.8771Z" fill="#F79B06"/>
<path d="M39.719 0L37.5545 23.705C37.4424 24.8118 37.3864 25.5403 37.3864 25.8906C37.3864 26.451 37.4914 26.8783 37.7016 27.1725C37.9678 27.5788 38.325 27.88 38.7734 28.0761C39.2357 28.2723 40.0062 28.3703 41.085 28.3703L40.8538 29.1479H29.6318L29.863 28.3703H30.3463C31.257 28.3703 31.9995 28.1742 32.5739 27.7819C32.9802 27.5157 33.2954 27.0744 33.5196 26.458C33.6737 26.0237 33.9609 23.6209 33.9609 23.3898C33.9609 23.1586 34.3681 19.7907 34.2971 19.7752C34.2262 19.7597 26.1433 19.7752 26.1433 19.7752L23.2432 23.705C22.5847 24.5876 22.1714 25.2251 22.0033 25.6174C21.8352 25.9956 21.7511 26.3529 21.7511 26.6891C21.7511 27.1375 21.9333 27.5227 22.2975 27.845C22.6618 28.1672 23.2642 28.3423 24.1048 28.3703L23.8737 29.1479H15.4466L15.6778 28.3703C16.7145 28.3283 17.6252 27.9851 18.4097 27.3406C19.2083 26.6821 20.3922 25.2881 21.9613 23.1586L38.9835 0H39.719ZM35.558 6.99802L27.2991 18.2411H34.4653L35.558 6.99802Z" fill="#F79B06"/>
<path d="M47.2424 0L45.0779 23.705C44.9658 24.8118 44.9098 25.5403 44.9098 25.8906C44.9098 26.451 45.0148 26.8783 45.225 27.1725C45.4912 27.5788 45.8484 27.88 46.2968 28.0761C46.7591 28.2723 47.5296 28.3703 48.6084 28.3703L48.3772 29.1479H37.1552L37.3864 28.3703H37.8697C38.7804 28.3703 39.5229 28.1742 40.0973 27.7819C40.5036 27.5157 40.8188 27.0744 41.043 26.458C41.1971 26.0237 41.3442 25.0009 41.4843 23.3898L41.8205 19.7752H33.6667L30.7666 23.705C30.1081 24.5876 29.6948 25.2251 29.5267 25.6174C29.3586 25.9956 29.2745 26.3529 29.2745 26.6891C29.2745 27.1375 29.4567 27.5227 29.8209 27.845C30.1852 28.1672 30.7876 28.3423 31.6282 28.3703L31.3971 29.1479H22.97L23.2012 28.3703C24.2379 28.3283 25.1486 27.9851 25.9331 27.3406C26.7317 26.6821 27.9156 25.2881 29.4847 23.1586L46.5069 0H47.2424ZM43.0814 6.99802L34.8225 18.2411H41.9887L43.0814 6.99802Z" fill="#F79B06"/>
</svg>
