<svg width="98" height="98" viewBox="0 0 98 98" fill="none" xmlns="http://www.w3.org/2000/svg">
<path d="M0.681424 40.2377C0.799998 39.5578 1.04313 38.9811 1.41083 38.5076C1.77715 38.042 2.2381 37.711 2.7937 37.5146C3.3493 37.3183 3.95913 37.278 4.6232 37.3938C5.28728 37.5096 5.84748 37.754 6.3038 38.1268C6.76013 38.4997 7.08183 38.9671 7.26891 39.5293C7.45461 40.0993 7.48817 40.7242 7.3696 41.4041C7.25103 42.084 7.00137 42.6514 6.62062 43.1064C6.24777 43.5627 5.76912 43.8784 5.18466 44.0534C4.6081 44.2298 3.96407 44.256 3.25256 44.1319L2.84937 44.0616L3.61665 39.6621C3.24371 39.6052 2.94118 39.6583 2.70907 39.8215C2.48487 39.9861 2.34381 40.2344 2.2859 40.5664C2.19904 41.0645 2.34222 41.4112 2.71544 41.6066L2.19978 43.8628C1.55813 43.5717 1.1058 43.1058 0.84279 42.4653C0.587686 41.8261 0.533897 41.0836 0.681424 40.2377ZM4.48387 41.9761C4.84891 42.0317 5.1468 41.9818 5.37753 41.8265C5.60688 41.6792 5.74913 41.4474 5.80428 41.1311C5.85668 40.8307 5.79664 40.5677 5.62419 40.3421C5.45173 40.1166 5.19365 39.9616 4.84993 39.8772L4.48387 41.9761Z" fill="#F79B06"/>
<path d="M11.8029 32.7389L11.041 34.9464L8.46938 34.0588C8.6697 34.3147 8.78721 34.6015 8.82191 34.9191C8.854 35.2443 8.81113 35.5776 8.69331 35.9189C8.45767 36.6016 8.06591 37.048 7.51805 37.2579C6.96757 37.4754 6.33958 37.4624 5.6341 37.2189L1.68567 35.8561L2.44758 33.6486L5.90672 34.8425C6.28601 34.9734 6.58502 35.0172 6.80373 34.9738C7.03003 34.9331 7.18639 34.7876 7.27279 34.5372C7.45606 34.0062 7.14945 33.6033 6.35293 33.3283L2.96206 32.158L3.72397 29.9505L11.8029 32.7389Z" fill="#F79B06"/>
<path d="M5.53416 26.0009C5.8617 25.3844 6.27374 24.9081 6.77027 24.5721C7.2668 24.2362 7.8115 24.0575 8.40437 24.0363C8.99347 24.0221 9.58568 24.1731 10.181 24.4894C10.7763 24.8056 11.233 25.2118 11.551 25.7079C11.8653 26.2111 12.0222 26.7624 12.0217 27.3619C12.0213 27.9614 11.8573 28.5695 11.5298 29.186C11.2361 29.7388 10.8733 30.1822 10.4415 30.5162C10.013 30.861 9.54289 31.0702 9.0313 31.1437C8.52679 31.221 8.01686 31.1546 7.5015 30.9444L8.54028 28.7838C8.89596 28.9182 9.20214 28.9491 9.45882 28.8764C9.71174 28.8109 9.90596 28.6505 10.0415 28.3954C10.2109 28.0765 10.2097 27.7623 10.0378 27.453C9.86597 27.1436 9.53908 26.8609 9.05717 26.6049C8.56816 26.3451 8.14737 26.2306 7.7948 26.2614C7.44222 26.2922 7.18122 26.467 7.0118 26.7859C6.8725 27.0481 6.8446 27.3059 6.92809 27.5593C7.01159 27.8126 7.22298 28.0476 7.56227 28.2642L6.37467 30.3458C5.90117 30.0397 5.54814 29.6523 5.3156 29.1834C5.08637 28.7254 4.99114 28.2205 5.02989 27.6686C5.06488 27.1238 5.23297 26.5679 5.53416 26.0009Z" fill="#F79B06"/>
<path d="M14.4473 23.9697L13.1326 25.8998L7.76038 22.2403L9.07508 20.3102L14.4473 23.9697ZM16.3579 25.2275L15.0025 27.2172L13.6495 26.2956L15.0049 24.3058L16.3579 25.2275Z" fill="#F79B06"/>
<path d="M10.7343 18.2229C11.2002 17.6605 11.6704 17.357 12.145 17.3124C12.6257 17.273 13.1535 17.4913 13.7282 17.9674L15.814 19.6951L16.5205 18.8422L17.7905 19.8942L17.084 20.7471L18.2614 21.7223L16.7717 23.5207L15.5944 22.5455L14.5117 23.8526L13.2416 22.8006L14.3243 21.4935L12.4981 19.9808C12.2571 19.7812 12.0493 19.6924 11.8747 19.7145C11.7 19.7366 11.5232 19.8558 11.344 20.0721L10.7758 20.7581L9.50574 19.7061L10.7343 18.2229Z" fill="#F79B06"/>
<path d="M23.6257 14.5203C24.6266 15.6705 24.5157 16.7777 23.2929 17.8419L22.0762 18.9008L20.9935 17.6568L21.7563 16.993C21.9439 16.8297 22.0376 16.6684 22.0373 16.5091C22.0422 16.3559 21.9604 16.1824 21.7918 15.9887L21.7444 15.9342L20.5367 16.9852L19.4541 15.7412L20.6617 14.6902L17.7457 11.3396L19.5164 9.7986L22.4324 13.1492L23.177 12.5012L24.2596 13.7452L23.515 14.3932L23.6257 14.5203ZM14.3315 14.3109C14.8158 13.8894 15.2905 13.6891 15.7554 13.71C16.2204 13.7309 16.6794 14.0016 17.1325 14.5222L21.4315 19.4619L19.6699 20.995L15.5448 16.2551C15.3973 16.0856 15.2556 15.9961 15.1197 15.9867C14.9831 15.9886 14.8391 16.0554 14.6878 16.1871L14.4244 16.4163L13.3418 15.1723L14.3315 14.3109Z" fill="#F79B06"/>
<path d="M24.9159 6.12637C25.5173 5.7717 26.0841 5.61908 26.6164 5.66851C27.1527 5.72486 27.5615 5.99151 27.8428 6.46847C28.1282 6.95233 28.1948 7.42078 28.0428 7.87381C27.8838 8.33092 27.5271 8.81613 26.9727 9.32944L25.5009 10.6726C25.6721 10.9629 25.8648 11.1474 26.0789 11.2261C26.293 11.3048 26.5107 11.2789 26.7319 11.1485C27.195 10.8753 27.3252 10.4958 27.1224 10.0098L29.1499 8.89789C29.7048 10.3128 29.1598 11.5054 27.5146 12.4756C26.6022 13.0138 25.8051 13.2183 25.1235 13.0893C24.4418 12.9603 23.8645 12.4949 23.3916 11.6931L22.4254 10.0548C22.3235 9.88202 22.2265 9.78081 22.1345 9.75122C22.0466 9.72853 21.9474 9.74981 21.8368 9.81503L21.7227 9.8823L20.9767 8.61734C21.0267 8.55991 21.1202 8.48148 21.2572 8.38204C21.3832 8.27977 21.5084 8.19195 21.6328 8.11856C21.9508 7.93103 22.275 7.83301 22.6053 7.8245C22.9288 7.82006 23.2339 7.96619 23.5207 8.26288C23.4893 7.86214 23.5851 7.47956 23.8081 7.11514C24.0351 6.75764 24.4044 6.42805 24.9159 6.12637ZM25.1021 7.72155C24.8048 7.89685 24.6193 8.12735 24.5456 8.41307C24.465 8.70286 24.5266 9.02057 24.7304 9.36618L24.8405 9.55282L25.6184 8.78658C25.7806 8.63504 25.8884 8.47826 25.9419 8.31626C25.9885 8.15834 25.9711 8.01025 25.8895 7.87201C25.7102 7.56786 25.4477 7.51771 25.1021 7.72155Z" fill="#F79B06"/>
<path d="M36.8191 10.3168L34.6452 11.1698L33.6516 8.63725C33.5869 8.95573 33.445 9.23123 33.2258 9.46375C32.9993 9.6992 32.7179 9.88287 32.3817 10.0148C31.7094 10.2786 31.1156 10.2702 30.6003 9.98958C30.0776 9.71192 29.6799 9.22571 29.4073 8.53095L27.8817 4.64253L30.0556 3.78959L31.3922 7.19616C31.5388 7.56969 31.6995 7.82558 31.8744 7.96384C32.0523 8.10957 32.2645 8.13407 32.511 8.03734C33.034 7.83217 33.1416 7.33738 32.8338 6.55297L31.5236 3.21363L33.6975 2.36069L36.8191 10.3168Z" fill="#F79B06"/>
<path d="M37.8798 1.17571C38.5615 1.02508 39.1913 1.02976 39.7691 1.18976C40.3468 1.34975 40.8361 1.64847 41.2368 2.08591C41.6297 2.52508 41.8989 3.07378 42.0443 3.73201C42.1898 4.39023 42.1768 5.00126 42.0055 5.56509C41.8264 6.13065 41.5086 6.60769 41.052 6.99622C40.5954 7.38475 40.0262 7.65433 39.3445 7.80495C38.7333 7.93999 38.1606 7.95148 37.6262 7.83942C37.0858 7.73692 36.6217 7.51483 36.2339 7.17315C35.8479 6.83931 35.5677 6.4081 35.3934 5.87954L37.7116 5.2687C37.84 5.62661 38.0151 5.87968 38.2369 6.02792C38.4508 6.1779 38.6988 6.22172 38.9809 6.15939C39.3336 6.08148 39.5719 5.87679 39.6959 5.5453C39.8199 5.21382 39.823 4.78166 39.7053 4.24881C39.5858 3.70812 39.4 3.31359 39.1479 3.06521C38.8958 2.81683 38.5934 2.7316 38.2408 2.80951C37.9509 2.87357 37.7366 3.01954 37.5979 3.24742C37.4592 3.47531 37.4175 3.78861 37.4727 4.18734L35.1181 4.63362C35.0439 4.07471 35.1098 3.55471 35.3158 3.07361C35.5157 2.60208 35.8383 2.20207 36.2835 1.87359C36.7208 1.54684 37.2529 1.31421 37.8798 1.17571Z" fill="#F79B06"/>
<path d="M45.1794 0.0938258C46.2284 0.0235878 47.0462 0.165876 47.633 0.520689C48.2203 0.883509 48.5602 1.3956 48.6527 2.05697L46.3147 2.27385C46.2495 2.02084 46.1325 1.83565 45.9638 1.71826C45.7956 1.60887 45.5634 1.5641 45.2672 1.58394C44.7707 1.61718 44.533 1.78994 44.5539 2.10222C44.5651 2.27036 44.6458 2.39365 44.7958 2.47208C44.9464 2.55851 45.2442 2.62301 45.6895 2.66559C46.4341 2.73637 47.016 2.83815 47.4351 2.97095C47.8462 3.10428 48.1484 3.29316 48.3417 3.53759C48.527 3.78256 48.6333 4.10922 48.6607 4.51758C48.7052 5.18216 48.4758 5.72032 47.9725 6.13203C47.4618 6.5523 46.682 6.79755 45.633 6.86778C44.6642 6.93266 43.9016 6.77461 43.3452 6.39363C42.7894 6.02066 42.4511 5.47226 42.3302 4.74845L44.6314 4.52197C44.6753 4.81662 44.7784 5.03492 44.9407 5.17687C45.1036 5.32682 45.3091 5.39349 45.5573 5.37687C45.7895 5.36132 45.9702 5.29694 46.0994 5.18373C46.2285 5.07053 46.2872 4.92585 46.2754 4.74969C46.2631 4.56553 46.1859 4.43397 46.0439 4.355C45.8938 4.27658 45.6331 4.22567 45.2615 4.2023C44.1955 4.13695 43.4233 3.95541 42.9449 3.65769C42.4665 3.35996 42.2075 2.91484 42.1678 2.32231C42.1244 1.67374 42.3671 1.15481 42.896 0.765501C43.4174 0.384739 44.1786 0.160847 45.1794 0.0938258Z" fill="#F79B06"/>
<path d="M50.9701 0.124254C51.6989 0.171367 52.2206 0.373969 52.5352 0.73206C52.8492 1.09816 52.9822 1.65359 52.9341 2.39836L52.7593 5.10115L53.8645 5.17259L53.7581 6.81829L52.6529 6.74684L52.5543 8.27242L50.2239 8.12176L50.3225 6.59619L48.6288 6.48669L48.7352 4.84099L50.4289 4.95049L50.5819 2.58405C50.6021 2.27173 50.552 2.05136 50.4316 1.92296C50.3113 1.79455 50.111 1.72128 49.8307 1.70316L48.9417 1.6457L49.0481 0L50.9701 0.124254Z" fill="#F79B06"/>
<path d="M57.9399 7.56109L55.7112 7.16821L55.9 5.82027C55.682 6.27077 55.4364 6.57786 55.1631 6.74155C54.8804 6.91174 54.5376 6.96131 54.1345 6.89026L53.5892 6.79413L53.9111 4.96851L54.4801 5.06882C55.0096 5.16217 55.4036 5.14606 55.662 5.0205C55.9205 4.89493 56.088 4.61482 56.1646 4.18015L56.7686 0.754147L59.0684 1.15957L57.9399 7.56109Z" fill="#F79B06"/>
<path d="M60.613 8.24625L58.3559 7.64706L60.0237 1.36444L62.2808 1.96363L60.613 8.24625ZM60.061 10.4661L57.7341 9.84834L58.1542 8.26605L60.4811 8.88377L60.061 10.4661Z" fill="#F79B06"/>
<path d="M69.7466 12.1663L67.6477 11.2577L68.3346 7.48889L65.9685 10.5309L64.3777 9.84236L64.9653 6.03048L62.6876 9.11076L60.5886 8.20225L64.8941 2.98281L66.7941 3.80526L66.3685 7.42489L68.7053 4.63249L70.6053 5.45494L69.7466 12.1663Z" fill="#F79B06"/>
<path d="M74.6181 15.525L72.8842 14.3501L73.4048 13.496C72.7047 13.9425 71.9727 13.907 71.2087 13.3893C70.644 13.0066 70.3171 12.5234 70.2281 11.9396C70.1345 11.3624 70.3083 10.7483 70.7494 10.0972L73.0926 6.63931L75.0258 7.94929L73.1351 10.7395C72.847 11.1647 72.6808 11.5029 72.6367 11.7541C72.5813 12.0074 72.6766 12.2173 72.9224 12.3839C73.3808 12.6945 73.8868 12.4413 74.4405 11.6241L76.3312 8.83387L78.2645 10.1439L74.6181 15.525Z" fill="#F79B06"/>
<path d="M76.7103 17.2544L74.9251 15.7488L79.1159 10.7799L80.901 12.2854L76.7103 17.2544ZM75.2633 19.026L73.423 17.4739L74.4784 16.2224L76.3188 17.7746L75.2633 19.026Z" fill="#F79B06"/>
<path d="M83.9634 15.232C84.4356 15.7352 84.7506 16.2761 84.9082 16.8545C85.0603 17.4271 85.048 17.9944 84.8712 18.5565C84.6943 19.1186 84.3601 19.6303 83.8686 20.0916C83.377 20.5529 82.8452 20.8539 82.2729 20.9947C81.7007 21.1355 81.1338 21.1118 80.572 20.9237C80.0047 20.7296 79.485 20.381 79.0127 19.8777C78.5405 19.3745 78.2368 18.834 78.1019 18.2563C77.9611 17.6841 77.9963 17.1118 78.2076 16.5394C78.4129 15.9725 78.7789 15.442 79.3056 14.9477L79.604 14.6677L82.66 17.9242C82.9296 17.6603 83.0689 17.3865 83.0779 17.1029C83.081 16.8248 82.9673 16.5629 82.7367 16.3171C82.3907 15.9484 82.0275 15.8546 81.647 16.0355L80.1533 14.2678C80.7715 13.9298 81.4156 13.8481 82.0857 14.0226C82.7499 14.2027 83.3758 14.6058 83.9634 15.232ZM80.2892 17.2272C80.0255 17.4857 79.8864 17.7538 79.8719 18.0315C79.8519 18.3034 79.9517 18.5564 80.1714 18.7904C80.3801 19.0128 80.6264 19.1228 80.9103 19.1205C81.1943 19.1182 81.4732 19.0049 81.7472 18.7809L80.2892 17.2272Z" fill="#F79B06"/>
<path d="M86.5738 30.4169L85.4577 28.6445L86.2876 28.0649C85.8855 28.119 85.5204 28.0739 85.1924 27.9296C84.8601 27.7784 84.5914 27.5399 84.3861 27.2139C84.1509 26.8404 84.0505 26.4627 84.0849 26.0806C84.1194 25.6986 84.2713 25.3374 84.5406 24.997C84.0952 25.0879 83.694 25.0607 83.3371 24.9156C82.9802 24.7705 82.6927 24.5248 82.4746 24.1785C82.1196 23.6149 82.0152 23.05 82.1613 22.4838C82.3074 21.9176 82.7166 21.4228 83.3889 20.9995L86.9234 18.7737L88.1678 20.7497L85.2139 22.61C84.82 22.858 84.5613 23.0873 84.4379 23.2978C84.3076 23.5126 84.313 23.732 84.4541 23.9561C84.5867 24.1666 84.7857 24.2642 85.051 24.2489C85.3121 24.2267 85.6294 24.098 86.0029 23.8628L88.9568 22.0026L90.0473 23.7342L87.0933 25.5945C86.6927 25.8468 86.4306 26.0782 86.3071 26.2887C86.1794 26.4924 86.186 26.7064 86.3272 26.9304C86.4597 27.141 86.6587 27.2385 86.924 27.2232C87.1851 27.201 87.5024 27.0723 87.8759 26.8371L90.8298 24.9769L92.0742 26.953L86.5738 30.4169Z" fill="#F79B06"/>
<path d="M93.9775 31.0859C94.2244 31.7304 94.3114 32.3502 94.2385 32.9453C94.1628 33.5329 93.9368 34.0534 93.5605 34.5069C93.1842 34.9604 92.6813 35.3077 92.0518 35.5488C91.4223 35.7899 90.8161 35.8674 90.2331 35.7813C89.6502 35.6952 89.1343 35.4589 88.6854 35.0722C88.2337 34.6781 87.8844 34.1588 87.6375 33.5143C87.3907 32.8698 87.314 32.2546 87.4076 31.6688C87.4937 31.0858 87.7427 30.5694 88.1547 30.1194C88.5593 29.6723 89.0987 29.3195 89.7732 29.0612L90.1554 28.9148L91.7528 33.0853C92.1021 32.9429 92.3346 32.7421 92.4502 32.483C92.5583 32.2268 92.552 31.9413 92.4315 31.6265C92.2507 31.1544 91.9499 30.9301 91.5293 30.9538L90.815 28.7524C91.5152 28.6733 92.1424 28.8413 92.6967 29.2563C93.2434 29.6742 93.6704 30.2841 93.9775 31.0859ZM89.8216 31.5434C89.4797 31.6829 89.2496 31.8785 89.1311 32.1301C89.0098 32.3742 89.0065 32.6462 89.1213 32.9459C89.2304 33.2307 89.4168 33.4257 89.6805 33.5309C89.9443 33.6362 90.2453 33.6369 90.5837 33.5331L89.8216 31.5434Z" fill="#F79B06"/>
<path d="M96.3563 39.5014C96.5133 40.3129 96.4686 41.0531 96.2221 41.722C95.974 42.3831 95.5542 42.9384 94.9628 43.388C94.362 43.8312 93.6243 44.1375 92.7498 44.3067C91.9067 44.4699 91.1223 44.45 90.3964 44.2472C89.6627 44.0459 89.0473 43.6746 88.5502 43.1332C88.0515 42.584 87.7199 41.8839 87.5552 41.033C87.3387 39.9142 87.4302 38.9933 87.8297 38.2702C88.2278 37.5393 88.9065 36.9706 89.8659 36.5642L90.4248 38.945C90.013 39.0983 89.7197 39.3144 89.5449 39.5935C89.37 39.8726 89.3237 40.2248 89.4061 40.6503C89.5143 41.2097 89.8314 41.6019 90.3572 41.8271C90.8736 42.046 91.5179 42.0807 92.29 41.9313C93.0779 41.7788 93.6674 41.5094 94.0586 41.1231C94.4403 40.7304 94.5725 40.2308 94.4551 39.6241C94.3712 39.1908 94.1985 38.8686 93.937 38.6577C93.6661 38.4404 93.3276 38.3383 92.9214 38.3515L93.2256 39.9233L91.6893 40.2207L90.9368 36.3325L95.3804 35.4725L95.6412 36.8198L94.5794 37.0988C95.0176 37.2511 95.3967 37.5415 95.7166 37.97C96.0272 38.3921 96.2404 38.9026 96.3563 39.5014Z" fill="#F79B06"/>
<path d="M90.1403 55.5375L90.3282 53.4514L91.3276 53.4931C90.5978 53.097 90.2743 52.4394 90.3571 51.5202C90.4183 50.8409 90.6827 50.3208 91.1503 49.9601C91.6099 49.5986 92.2313 49.4531 93.0146 49.5237L97.1748 49.8984L96.9653 52.2243L93.6084 51.9219C93.0968 51.8758 92.7205 51.8943 92.4794 51.9773C92.2309 52.0516 92.0934 52.2366 92.0668 52.5324C92.0171 53.0839 92.4838 53.4039 93.4669 53.4924L96.8238 53.7948L96.6143 56.1207L90.1403 55.5375Z" fill="#F79B06"/>
<path d="M95.7563 60.5461C95.5846 61.2228 95.2974 61.7833 94.8949 62.2276C94.4924 62.6719 94.0057 62.9748 93.4348 63.1362C92.8659 63.2899 92.2548 63.2838 91.6014 63.118C90.948 62.9522 90.408 62.6661 89.9812 62.2597C89.5565 61.8456 89.2731 61.3472 89.1311 60.7648C88.9892 60.1823 89.0041 59.5527 89.1758 58.876C89.3476 58.1993 89.6347 57.6388 90.0373 57.1945C90.4398 56.7502 90.9255 56.4513 91.4944 56.2976C92.0653 56.1361 92.6774 56.1383 93.3308 56.3041C93.9841 56.47 94.5232 56.7599 94.948 57.1741C95.3747 57.5805 95.6591 58.0749 95.801 58.6573C95.943 59.2398 95.9281 59.8694 95.7563 60.5461ZM94.1345 60.1345C94.2234 59.7845 94.1476 59.4796 93.9072 59.2199C93.6668 58.9602 93.2782 58.7622 92.7415 58.626C92.2125 58.4917 91.7805 58.4814 91.4453 58.5951C91.1024 58.7067 90.8865 58.9376 90.7976 59.2876C90.7088 59.6376 90.7885 59.9435 91.0367 60.2052C91.2771 60.4649 91.6618 60.6619 92.1907 60.7961C92.7274 60.9324 93.1633 60.9436 93.4985 60.83C93.8337 60.7164 94.0457 60.4845 94.1345 60.1345Z" fill="#F79B06"/>
<path d="M87.5784 64.6322L88.4 62.4462L94.4847 64.7329L93.6632 66.9189L87.5784 64.6322ZM85.4248 63.8614L86.2717 61.6078L87.8042 62.1837L86.9573 64.4373L85.4248 63.8614Z" fill="#F79B06"/>
<path d="M92.5301 69.351C92.2078 70.0062 91.821 70.4107 91.3698 70.5644C90.9114 70.7145 90.3473 70.6249 89.6777 70.2955L87.2473 69.1L86.7585 70.0938L85.2787 69.3659L85.7675 68.3721L84.3958 67.6974L85.4265 65.6019L86.7983 66.2766L87.5474 64.7536L89.0272 65.4815L88.2781 67.0045L90.406 68.0512C90.6868 68.1894 90.9096 68.2274 91.0742 68.1653C91.2389 68.1032 91.3833 67.9462 91.5072 67.6941L91.9004 66.8948L93.3802 67.6227L92.5301 69.351Z" fill="#F79B06"/>
<path d="M88.5823 76.3625C88.1943 76.943 87.7498 77.3263 87.2487 77.5127C86.7411 77.6946 86.257 77.6316 85.7967 77.3239C85.3297 77.0117 85.0664 76.6186 85.0069 76.1444C84.9519 75.6636 85.0628 75.0717 85.3396 74.3687L86.0831 72.52C85.8029 72.3327 85.5493 72.2501 85.3222 72.272C85.0952 72.294 84.9103 72.4118 84.7676 72.6252C84.4688 73.0722 84.5161 73.4707 84.9096 73.8206L83.5652 75.7019C82.4514 74.6678 82.4252 73.3568 83.4866 71.769C84.0753 70.8883 84.7047 70.3583 85.3749 70.1788C86.0451 69.9994 86.7671 70.1683 87.541 70.6856L89.1222 71.7426C89.289 71.8541 89.4202 71.9032 89.516 71.89C89.605 71.8723 89.6852 71.8101 89.7566 71.7033L89.8302 71.5932L91.0511 72.4094C91.0309 72.4828 90.9807 72.594 90.9004 72.743C90.8312 72.8898 90.7565 73.0233 90.6762 73.1434C90.4711 73.4503 90.2215 73.6792 89.9275 73.8302C89.638 73.9745 89.2997 73.9752 88.9126 73.8323C89.1147 74.1797 89.1944 74.566 89.1515 74.9911C89.102 75.4117 88.9123 75.8688 88.5823 76.3625ZM87.7226 75.006C87.9144 74.7191 87.9815 74.431 87.924 74.1415C87.8709 73.8455 87.6776 73.5859 87.344 73.3629L87.1639 73.2425L86.7954 74.2703C86.715 74.4772 86.6858 74.6653 86.7079 74.8345C86.7344 74.997 86.8144 75.1228 86.9478 75.212C87.2413 75.4082 87.4996 75.3396 87.7226 75.006Z" fill="#F79B06"/>
<path d="M80.1078 76.5884L81.6047 74.796L86.5939 78.9626L85.097 80.7551L80.1078 76.5884ZM78.3292 75.15L79.8724 73.3022L81.129 74.3516L79.5858 76.1994L78.3292 75.15Z" fill="#F79B06"/>
<path d="M78.6083 84.6937L78.7751 80.1682L76.5499 82.2825L75.4139 81.087L79.7249 76.991L80.8857 78.2127L80.649 82.8045L83.1274 80.4498L84.2633 81.6453L79.7691 85.9154L78.6083 84.6937Z" fill="#F79B06"/>
<path d="M76.1246 88.7261C75.5488 89.1209 74.9631 89.3522 74.3674 89.42C73.7717 89.4879 73.2062 89.394 72.6709 89.1383C72.1422 88.878 71.6873 88.4699 71.3061 87.9139C70.9249 87.358 70.7082 86.7865 70.6561 86.1995C70.6106 85.608 70.7268 85.0467 71.0048 84.5156C71.2828 83.9844 71.7097 83.5214 72.2856 83.1266C72.8614 82.7318 73.4471 82.5005 74.0428 82.4327C74.6385 82.3648 75.2006 82.461 75.7293 82.7212C76.2647 82.9769 76.7229 83.3828 77.1041 83.9387C77.4853 84.4947 77.6986 85.0684 77.7442 85.66C77.7963 86.2469 77.6834 86.806 77.4054 87.3371C77.1274 87.8683 76.7005 88.3313 76.1246 88.7261ZM75.1785 87.3461C75.4763 87.1419 75.6207 86.8629 75.6117 86.509C75.6026 86.1552 75.4415 85.75 75.1284 85.2933C74.8198 84.8432 74.5022 84.5502 74.1754 84.4142C73.8441 84.2716 73.5296 84.3024 73.2317 84.5066C72.9339 84.7108 72.7918 84.9931 72.8053 85.3536C72.8144 85.7074 72.9732 86.1093 73.2818 86.5594C73.5949 87.0161 73.9148 87.3124 74.2416 87.4484C74.5683 87.5844 74.8806 87.5503 75.1785 87.3461Z" fill="#F79B06"/>
<path d="M69.7425 92.4575C68.7945 92.9118 67.9822 93.0831 67.3057 92.9713C66.6257 92.8522 66.1201 92.5028 65.7888 91.923L67.8795 90.8542C68.0339 91.0649 68.2112 91.1935 68.4115 91.24C68.6082 91.2791 68.8405 91.2346 69.1082 91.1062C69.5569 90.8912 69.7136 90.6426 69.5784 90.3603C69.5055 90.2083 69.3849 90.1238 69.2165 90.1066C69.0446 90.0822 68.744 90.1328 68.3148 90.2584C67.597 90.469 67.0189 90.5903 66.5804 90.6225C66.1492 90.6512 65.7985 90.5879 65.5283 90.4326C65.2654 90.2739 65.0454 90.01 64.8686 89.6409C64.5807 89.0402 64.5941 88.4554 64.9087 87.8863C65.227 87.3066 65.8602 86.7895 66.8083 86.3352C67.6839 85.9155 68.4507 85.7794 69.1087 85.9268C69.7632 86.0669 70.2808 86.4507 70.6616 87.078L68.6086 88.142C68.4586 87.8847 68.2819 87.7202 68.0785 87.6486C67.8716 87.5698 67.656 87.5841 67.4317 87.6916C67.2218 87.7922 67.0779 87.919 67 88.0721C66.922 88.2251 66.9212 88.3812 66.9975 88.5404C67.0773 88.7069 67.1978 88.8004 67.3589 88.8211C67.5274 88.8382 67.7884 88.7888 68.1421 88.6726C69.1563 88.3378 69.9408 88.2199 70.4955 88.3189C71.0502 88.4179 71.4558 88.7352 71.7125 89.2707C71.9934 89.8569 71.9606 90.4289 71.6138 90.9866C71.2709 91.5336 70.6471 92.0239 69.7425 92.4575Z" fill="#F79B06"/>
<path d="M63.0531 95.096C62.0482 95.4047 61.2195 95.4537 60.5671 95.2428C59.9122 95.0242 59.464 94.6036 59.2224 93.981L61.4485 93.2342C61.5699 93.4655 61.7262 93.619 61.9174 93.6946C62.1061 93.7625 62.3424 93.7529 62.6263 93.6657C63.1019 93.5195 63.2937 93.2969 63.2018 92.9977C63.1523 92.8366 63.0456 92.7351 62.8816 92.6931C62.7152 92.6435 62.4105 92.649 61.9673 92.7096C61.2263 92.8113 60.6365 92.8456 60.1982 92.8123C59.7675 92.7768 59.43 92.6622 59.1859 92.4685C58.9493 92.2725 58.771 91.9789 58.6508 91.5877C58.4552 90.951 58.5551 90.3746 58.9507 89.8585C59.3515 89.3324 60.0544 88.915 61.0593 88.6063C61.9875 88.3211 62.766 88.3002 63.3949 88.5435C64.0214 88.7792 64.4764 89.2355 64.7599 89.9123L62.5718 90.6601C62.4616 90.3834 62.3112 90.1945 62.1207 90.0935C61.9278 89.9849 61.7125 89.9671 61.4747 90.0402C61.2522 90.1085 61.0911 90.2126 60.9913 90.3524C60.8915 90.4921 60.8676 90.6464 60.9194 90.8152C60.9736 90.9916 61.0789 91.102 61.2352 91.1463C61.3992 91.1883 61.6647 91.1781 62.0317 91.1157C63.0844 90.935 63.8777 90.9347 64.4115 91.1149C64.9454 91.2951 65.2996 91.669 65.474 92.2367C65.6649 92.8581 65.5475 93.4188 65.1219 93.919C64.7016 94.4091 64.012 94.8014 63.0531 95.096Z" fill="#F79B06"/>
<path d="M52.386 88.3394L55.0494 88.0045L59.1732 96.0999L56.7845 96.4003L56.131 95.0629L53.0735 95.4474L52.7715 96.9049L50.3948 97.2037L52.386 88.3394ZM55.2937 93.3241L54.048 90.751L53.4663 93.5539L55.2937 93.3241Z" fill="#F79B06"/>
<path d="M45.5094 92.7173L49.7456 92.8083L49.7063 94.6376L45.4701 94.5465L45.5094 92.7173Z" fill="#F79B06"/>
<path d="M39.2029 89.6839L41.274 89.9961L41.1727 90.9912C41.6117 90.2864 42.2875 90.0028 43.2 90.1404C43.8745 90.242 44.3779 90.537 44.7101 91.0254C45.0434 91.5057 45.1515 92.1348 45.0343 92.9124L44.4117 97.0428L42.1025 96.6947L42.6049 93.3618C42.6814 92.854 42.6855 92.4772 42.617 92.2315C42.5577 91.9791 42.3812 91.8308 42.0876 91.7865C41.54 91.704 41.1927 92.1507 41.0456 93.1268L40.5432 96.4596L38.234 96.1115L39.2029 89.6839Z" fill="#F79B06"/>
<path d="M33.9828 95.0323C33.3249 94.8237 32.786 94.5056 32.3659 94.0778C31.9535 93.6525 31.6873 93.1513 31.567 92.5745C31.4468 91.9976 31.4886 91.3878 31.6922 90.7452C31.8959 90.1026 32.2131 89.5802 32.6436 89.1779C33.0742 88.7756 33.5806 88.5194 34.1627 88.4092C34.7524 88.3015 35.3763 88.3519 36.0342 88.5605C36.692 88.769 37.2209 89.0924 37.6208 89.5306C38.0231 89.9612 38.2719 90.4778 38.3671 91.0804C38.4647 91.6754 38.4044 92.3172 38.1862 93.0057L38.0625 93.3958L33.8054 92.0464C33.699 92.4084 33.7112 92.7153 33.8418 92.9672C33.9749 93.2114 34.2021 93.3844 34.5233 93.4863C35.0053 93.639 35.3681 93.5435 35.6117 93.1998L37.7785 94.0129C37.4041 94.6098 36.8819 94.9957 36.2119 95.1706C35.5444 95.3378 34.8013 95.2917 33.9828 95.0323ZM36.2147 91.4968C36.3186 91.1425 36.309 90.8406 36.186 90.5912C36.0707 90.3441 35.86 90.1721 35.554 90.0752C35.2634 89.983 34.9947 90.0073 34.748 90.148C34.5014 90.2887 34.3133 90.5237 34.1836 90.853L36.2147 91.4968Z" fill="#F79B06"/>
<path d="M25.8488 91.63C25.376 91.3913 25.0255 91.0616 24.7974 90.6408C24.573 90.2129 24.478 89.7244 24.5124 89.1755C24.5575 88.623 24.7356 88.0386 25.0466 87.4225C25.354 86.8136 25.7201 86.3287 26.145 85.9679C26.5699 85.607 27.0193 85.3934 27.4933 85.327C27.9709 85.2535 28.4425 85.3342 28.9082 85.5693C29.3309 85.7827 29.6421 86.0476 29.8419 86.3642C30.0452 86.6736 30.148 87.0222 30.1501 87.4098L31.4954 84.7448L33.5801 85.7971L29.7287 93.4267L27.6977 92.4015L28.0886 91.5471C27.7683 91.7719 27.4108 91.8926 27.0159 91.909C26.6319 91.9219 26.2428 91.8289 25.8488 91.63ZM27.3658 90.5215C28.0105 90.8469 28.5915 90.4974 29.1086 89.473C29.6257 88.4485 29.5619 87.7736 28.9172 87.4481C28.6234 87.2999 28.3201 87.322 28.0071 87.5146C27.6978 87.7001 27.4237 88.0292 27.1851 88.502C26.9536 88.9605 26.8515 89.3764 26.8788 89.7498C26.9169 90.1196 27.0792 90.3768 27.3658 90.5215Z" fill="#F79B06"/>
<path d="M21.4868 80.851L23.1808 82.0828L22.6321 82.9192C23.3466 82.4961 24.077 82.5559 24.8234 83.0986C25.3751 83.4998 25.6858 83.9936 25.7555 84.5801C25.8299 85.1601 25.6358 85.7681 25.1733 86.4041L22.7168 89.7824L20.828 88.4091L22.8102 85.6831C23.1123 85.2677 23.2896 84.9352 23.3421 84.6856C23.4058 84.4343 23.3175 84.2213 23.0774 84.0466C22.6295 83.721 22.1154 83.9573 21.5349 84.7557L19.5527 87.4817L17.6639 86.1083L21.4868 80.851Z" fill="#F79B06"/>
<path d="M14.3912 83.2093C13.9019 82.7227 13.5685 82.193 13.391 81.6204C13.2192 81.0534 13.2119 80.486 13.3693 79.9181C13.5266 79.3502 13.8429 78.8273 14.3183 78.3493C14.7936 77.8713 15.3148 77.5521 15.8818 77.3917C16.4488 77.2312 17.0163 77.2353 17.5842 77.404C18.1578 77.5783 18.6893 77.9088 19.1786 78.3955C19.668 78.8821 19.9901 79.4118 20.1448 79.9845C20.3053 80.5515 20.2899 81.1247 20.0985 81.704C19.9128 82.2777 19.5654 82.8205 19.0561 83.3326L18.7675 83.6228L15.6009 80.4737C15.3406 80.7468 15.2109 81.0252 15.2117 81.3089C15.2181 81.587 15.3408 81.8448 15.5798 82.0825C15.9383 82.439 16.3045 82.5203 16.6785 82.3263L18.2324 84.0414C17.6262 84.4006 16.9852 84.5045 16.3096 84.3531C15.6395 84.1961 15.0001 83.8148 14.3912 83.2093ZM17.9944 81.0885C18.249 80.8211 18.3788 80.5483 18.3837 80.2703C18.3943 79.9978 18.2858 79.7485 18.0582 79.5221C17.842 79.3071 17.592 79.2056 17.3083 79.2178C17.0246 79.2299 16.7497 79.3526 16.4837 79.586L17.9944 81.0885Z" fill="#F79B06"/>
<path d="M10.4864 78.7341C10.0412 78.1552 9.84938 77.6295 9.91103 77.1568C9.97904 76.6793 10.3088 76.213 10.9004 75.7579L13.0472 74.1066L12.3719 73.2288L13.6791 72.2233L14.3543 73.1011L15.566 72.169L16.9899 74.02L15.7781 74.9521L16.813 76.2974L15.5058 77.3029L14.471 75.9576L12.5914 77.4034C12.3433 77.5943 12.2107 77.7773 12.1936 77.9524C12.1764 78.1276 12.2535 78.3265 12.4248 78.5491L12.9679 79.2552L11.6607 80.2607L10.4864 78.7341Z" fill="#F79B06"/>
<path d="M12.4558 70.276L13.7006 72.2519L8.20085 75.7168L6.95605 73.7409L12.4558 70.276ZM14.3717 69.0263L15.655 71.0633L14.2698 71.9359L12.9865 69.899L14.3717 69.0263Z" fill="#F79B06"/>
<path d="M4.92187 70.0517C4.61912 69.4315 4.47778 68.8218 4.49784 68.2226C4.52143 67.6306 4.70062 67.0922 5.03543 66.6073C5.37024 66.1223 5.84054 65.732 6.44631 65.4363C7.05209 65.1406 7.64911 65.0099 8.23739 65.0442C8.82566 65.0785 9.36042 65.2685 9.84165 65.614C10.3264 65.9668 10.7201 66.4532 11.0229 67.0734C11.3256 67.6936 11.4563 68.2996 11.4147 68.8914C11.3804 69.4797 11.1779 70.0161 10.8072 70.5007C10.4437 70.9818 9.93746 71.3807 9.28841 71.6975L8.92062 71.8771L6.96155 67.8638C6.62612 68.0365 6.41227 68.257 6.31999 68.5253C6.23492 68.7901 6.26631 69.0739 6.41416 69.3768C6.63595 69.8311 6.95529 70.028 7.3722 69.9673L8.27788 72.0971C7.58745 72.2377 6.94787 72.1257 6.35915 71.7612C5.77764 71.3931 5.29855 70.8233 4.92187 70.0517ZM9.02121 69.2293C9.34942 69.0602 9.56143 68.8451 9.65723 68.584C9.75656 68.3301 9.73581 68.0589 9.595 67.7705C9.46122 67.4964 9.25834 67.3186 8.98635 67.2371C8.71436 67.1555 8.41443 67.1814 8.08656 67.3147L9.02121 69.2293Z" fill="#F79B06"/>
<path d="M2.33536 63.6727C2.20505 63.2426 2.18052 62.8434 2.26176 62.475C2.35301 62.1119 2.537 61.792 2.81373 61.5153L1.90467 61.753L1.245 59.5757L9.42442 57.0975L10.1016 59.3325L7.24451 60.1981C7.6206 60.277 7.94851 60.446 8.22824 60.705C8.50797 60.964 8.70949 61.2971 8.83282 61.7041C8.9864 62.211 8.98695 62.6972 8.83449 63.1627C8.68203 63.6281 8.39144 64.039 7.96274 64.3953C7.53403 64.7516 6.99711 65.0274 6.35197 65.2229C5.70683 65.4184 5.10708 65.4869 4.55272 65.4284C3.99836 65.37 3.52861 65.1895 3.14345 64.8869C2.7583 64.5843 2.48894 64.1796 2.33536 63.6727ZM3.70632 62.4272C3.79707 62.7267 4.01245 62.9256 4.35246 63.0238C4.70016 63.1197 5.13513 63.0886 5.65739 62.9304C6.17964 62.7721 6.55493 62.5578 6.78325 62.2874C7.02158 62.0223 7.09421 61.7362 7.00113 61.429C6.89875 61.091 6.67755 60.873 6.33753 60.7747C5.99752 60.6765 5.56255 60.7077 5.03261 60.8682C4.51036 61.0264 4.13123 61.2419 3.89523 61.5147C3.6669 61.7851 3.60394 62.0893 3.70632 62.4272Z" fill="#F79B06"/>
<path d="M8.83489 51.765L9.13165 54.4329L0.97813 58.4405L0.711972 56.0478L2.05849 55.4135L1.71781 52.3508L0.264827 52.028L0 49.6472L8.83489 51.765ZM3.8091 54.6011L6.39978 53.3924L3.60549 52.7706L3.8091 54.6011Z" fill="#F79B06"/>
</svg>
